<?xml version="1.0" encoding="utf-8" ?>
<svg xmlns="http://www.w3.org/2000/svg" xmlns:xlink="http://www.w3.org/1999/xlink" width="1024" height="1024">
	<path fill="#FEFEFE" d="M0 0L1024 0L1024 1024L0 1024L0 0Z"/>
	<path fill="#FEFEFE" d="M684.164 137.785C686.77 126.085 692.478 116.929 702.732 110.402C710.584 105.403 720.46 103.38 729.588 105.442C739.283 107.633 747.996 114.108 753.218 122.521C756.218 127.355 757.757 132.408 758.98 137.92C766.81 137.833 774.649 137.897 782.48 137.913C803.421 137.955 817.828 140.208 833.531 155.314C845.788 167.105 852.27 181.448 852.55 198.504C853.486 255.367 852.649 312.366 852.582 369.244L852.602 650.971L852.625 795.705L852.652 838.975C852.65 847.493 853.189 856.507 852.09 864.955C850.435 877.67 842.85 891.131 833.974 900.216C821.933 912.541 806.372 918.878 789.253 918.951L406.312 918.803L283.476 918.865L249.454 918.851C241.963 918.87 234.212 919.293 226.779 918.298C213.698 916.548 200.186 909.931 190.875 900.578C181.698 891.359 175.01 878.863 173.078 865.939C171.408 854.773 172.534 835.959 172.532 824.033L172.5 737.881L172.515 425.743L172.524 260.622L172.525 215.072C172.528 206.299 171.795 196.819 173.332 188.17C175.526 175.831 181.224 163.438 190.195 154.563C211.392 133.595 237.398 136.916 264.713 137.024C267.643 125.609 273.046 115.751 283.448 109.55C291.522 104.737 301.96 103.582 311.025 105.879Q311.903 106.107 312.769 106.377Q313.634 106.648 314.486 106.962Q315.337 107.275 316.171 107.63Q317.006 107.986 317.822 108.382Q318.638 108.778 319.433 109.214Q320.228 109.65 321.001 110.126Q321.774 110.601 322.522 111.113Q323.27 111.626 323.992 112.176Q324.714 112.725 325.407 113.309Q326.101 113.894 326.765 114.512Q327.429 115.13 328.061 115.78Q328.694 116.43 329.293 117.111Q329.892 117.792 330.457 118.502Q331.022 119.211 331.551 119.948Q332.08 120.685 332.572 121.447Q333.064 122.209 333.517 122.995C336.076 127.359 338.102 132.556 338.762 137.586L370.6 137.781C372.78 126.558 377.924 117.416 387.578 110.928C395.508 105.6 405.699 104.065 414.986 106.001C424.959 108.08 433.843 114.998 439.262 123.503C442.21 128.129 443.599 132.76 445.016 138.004Q460.383 137.497 475.758 137.524C477.83 126.863 483.041 117.593 492.135 111.394Q492.857 110.892 493.603 110.428Q494.349 109.963 495.117 109.536Q495.885 109.11 496.674 108.722Q497.463 108.334 498.27 107.987Q499.078 107.639 499.901 107.332Q500.725 107.026 501.563 106.761Q502.401 106.496 503.251 106.273Q504.101 106.05 504.962 105.87Q505.822 105.691 506.69 105.554Q507.559 105.418 508.433 105.325Q509.307 105.233 510.184 105.184Q511.062 105.135 511.941 105.131Q512.82 105.126 513.698 105.166Q514.576 105.205 515.451 105.288Q516.326 105.372 517.195 105.499Q518.065 105.626 518.927 105.797C529.235 107.803 538.09 114.239 543.82 122.954C546.824 127.523 548.464 132.182 549.667 137.484L579.851 137.527C581.409 127.703 586.09 118.872 594.239 112.994C602.574 106.983 612.855 104.139 623.048 105.853Q623.975 106.012 624.893 106.218Q625.812 106.423 626.719 106.674Q627.625 106.925 628.519 107.22Q629.412 107.516 630.289 107.855Q631.167 108.195 632.026 108.577Q632.886 108.96 633.725 109.385Q634.565 109.81 635.382 110.276Q636.2 110.742 636.993 111.249Q637.786 111.755 638.553 112.3Q639.32 112.845 640.059 113.427Q640.798 114.01 641.507 114.628Q642.216 115.246 642.893 115.899Q643.571 116.552 644.215 117.238Q644.859 117.924 645.469 118.641Q646.078 119.357 646.651 120.104Q647.224 120.85 647.759 121.624C650.999 126.212 653.661 131.938 654.228 137.57C664.156 137.65 674.264 137.31 684.164 137.785Z"/>
	<path fill="#491B01" d="M758.98 137.92C766.81 137.833 774.649 137.897 782.48 137.913C803.421 137.955 817.828 140.208 833.531 155.314C845.788 167.105 852.27 181.448 852.55 198.504C853.486 255.367 852.649 312.366 852.582 369.244L852.602 650.971L852.625 795.705L852.652 838.975C852.65 847.493 853.189 856.507 852.09 864.955C850.435 877.67 842.85 891.131 833.974 900.216C821.933 912.541 806.372 918.878 789.253 918.951L406.312 918.803L283.476 918.865L249.454 918.851C241.963 918.87 234.212 919.293 226.779 918.298C213.698 916.548 200.186 909.931 190.875 900.578C181.698 891.359 175.01 878.863 173.078 865.939C171.408 854.773 172.534 835.959 172.532 824.033L172.5 737.881L172.515 425.743L172.524 260.622L172.525 215.072C172.528 206.299 171.795 196.819 173.332 188.17C175.526 175.831 181.224 163.438 190.195 154.563C211.392 133.595 237.398 136.916 264.713 137.024C264.249 141.847 263.984 146.559 263.919 151.404C259.23 151.085 254.492 151.146 249.792 151.101C230.762 150.918 214.312 150.344 199.828 164.736C193.349 171.175 187.965 180.564 186.789 189.715C186.011 195.771 186.381 202.282 186.353 208.401L186.397 244.029L186.402 351.477L186.168 733.059L185.933 822.332C185.906 833.852 184.695 856.276 186.793 866.339C188.719 875.577 193.645 884.356 200.339 890.992C208.19 898.775 219.225 903.865 230.149 905.274C236.629 906.11 243.376 905.608 249.907 905.556L280.32 905.49L390.028 905.516L769.039 905.646C789.586 905.653 808.228 906.911 823.965 890.98C831.661 883.189 837.284 873.216 838.622 862.231C839.515 854.895 839.051 847.129 839.084 839.729L839.338 802.181L839.226 659.58L839.414 201.901C839.294 187.549 835.059 175.374 824.609 165.215C805.952 147.079 783.453 150.66 759.614 150.886C759.835 146.614 759.646 142.148 758.98 137.92Z"/>
	<path fill="#3082BA" d="M684.164 137.785C686.77 126.085 692.478 116.929 702.732 110.402C710.584 105.403 720.46 103.38 729.588 105.442C739.283 107.633 747.996 114.108 753.218 122.521C756.218 127.355 757.757 132.408 758.98 137.92C759.646 142.148 759.835 146.614 759.614 150.886C758.596 162.362 756.957 173.473 749.35 182.668C743.461 189.786 734.711 194.665 725.479 195.514C715.502 196.432 706.205 193.252 698.555 186.859C687.196 177.366 684.784 165.221 683.56 151.151L684.164 137.785Z"/>
	<path fill="#FEFEFE" d="M694.436 137.437C696.913 129.181 700.435 122.74 708.266 118.436C715.057 114.704 722.81 114.031 730.203 116.248C737.567 118.457 743.266 123.3 746.793 130.081Q748.592 133.586 749.507 137.418C749.694 141.983 749.955 146.558 749.977 151.127C750.318 160.33 747.632 170.069 741.304 176.953Q740.838 177.458 740.348 177.938Q739.857 178.418 739.343 178.873Q738.829 179.328 738.292 179.756Q737.755 180.185 737.198 180.585Q736.64 180.986 736.063 181.357Q735.485 181.729 734.89 182.071Q734.295 182.413 733.683 182.725Q733.071 183.036 732.444 183.316Q731.817 183.596 731.177 183.844Q730.536 184.092 729.884 184.307Q729.232 184.522 728.57 184.704Q727.908 184.885 727.238 185.033Q726.567 185.181 725.89 185.295Q725.213 185.409 724.531 185.488Q723.849 185.568 723.164 185.612Q722.478 185.657 721.792 185.667C715.022 185.743 708.624 182.894 703.785 178.237C696.265 170.998 693.611 161.117 693.408 150.963C693.625 146.444 693.73 141.911 694.436 137.437Z"/>
	<path fill="#FEFEFE" d="M694.436 137.437C696.913 129.181 700.435 122.74 708.266 118.436C715.057 114.704 722.81 114.031 730.203 116.248C737.567 118.457 743.266 123.3 746.793 130.081Q748.592 133.586 749.507 137.418C731.18 137.853 712.771 137.538 694.436 137.437Z"/>
	<path fill="#982309" d="M694.436 137.437C712.771 137.538 731.18 137.853 749.507 137.418C749.694 141.983 749.955 146.558 749.977 151.127C731.175 150.517 712.227 150.978 693.408 150.963C693.625 146.444 693.73 141.911 694.436 137.437Z"/>
	<path fill="#3082BA" d="M579.851 137.527C581.409 127.703 586.09 118.872 594.239 112.994C602.574 106.983 612.855 104.139 623.048 105.853Q623.975 106.012 624.893 106.218Q625.812 106.423 626.719 106.674Q627.625 106.925 628.519 107.22Q629.412 107.516 630.289 107.855Q631.167 108.195 632.026 108.577Q632.886 108.96 633.725 109.385Q634.565 109.81 635.382 110.276Q636.2 110.742 636.993 111.249Q637.786 111.755 638.553 112.3Q639.32 112.845 640.059 113.427Q640.798 114.01 641.507 114.628Q642.216 115.246 642.893 115.899Q643.571 116.552 644.215 117.238Q644.859 117.924 645.469 118.641Q646.078 119.357 646.651 120.104Q647.224 120.85 647.759 121.624C650.999 126.212 653.661 131.938 654.228 137.57C654.341 142.015 654.189 146.639 654.619 151.054C654.65 151.521 654.688 151.988 654.696 152.456C654.891 163.873 651.203 176.052 643.043 184.271C636.294 191.07 626.783 195.536 617.135 195.564Q616.258 195.572 615.381 195.537Q614.504 195.502 613.63 195.424Q612.756 195.346 611.887 195.225Q611.018 195.104 610.156 194.941Q609.293 194.777 608.44 194.572Q607.587 194.367 606.745 194.12Q605.903 193.872 605.074 193.584Q604.246 193.296 603.432 192.968Q602.618 192.64 601.822 192.272Q601.025 191.904 600.247 191.497Q599.47 191.091 598.713 190.646Q597.956 190.202 597.222 189.721Q596.488 189.241 595.779 188.724Q595.069 188.208 594.386 187.658Q593.702 187.107 593.047 186.524Q592.391 185.941 591.765 185.326C582.527 176.106 578.996 163.848 578.917 151.091C579.166 146.562 579.406 142.041 579.851 137.527Z"/>
	<path fill="#FEFEFE" d="M589.069 137.518C593.33 128.406 597.15 120.444 607.349 116.703Q608.016 116.454 608.695 116.24Q609.375 116.026 610.064 115.847Q610.753 115.669 611.451 115.526Q612.148 115.383 612.852 115.276Q613.556 115.169 614.265 115.099Q614.974 115.028 615.685 114.994Q616.396 114.961 617.108 114.963Q617.82 114.966 618.531 115.006Q619.242 115.046 619.95 115.122Q620.658 115.198 621.361 115.31Q622.064 115.423 622.761 115.572Q623.457 115.72 624.145 115.905Q624.833 116.089 625.51 116.309Q626.188 116.528 626.853 116.782Q627.518 117.036 628.169 117.325Q628.821 117.613 629.456 117.934C636.813 121.578 641.665 127.774 644.253 135.434Q644.6 136.473 644.899 137.526Q645.063 144.443 645.1 151.361C644.766 159.512 643.478 167.057 638.582 173.785C634.057 180.003 627.437 184.437 619.716 185.456C612.715 186.38 606.367 184.456 600.891 180.04C591.796 172.706 589.323 162.121 588.283 151.055C587.717 146.806 587.88 141.652 589.069 137.518Z"/>
	<path fill="#FEFEFE" d="M589.069 137.518C593.33 128.406 597.15 120.444 607.349 116.703Q608.016 116.454 608.695 116.24Q609.375 116.026 610.064 115.847Q610.753 115.669 611.451 115.526Q612.148 115.383 612.852 115.276Q613.556 115.169 614.265 115.099Q614.974 115.028 615.685 114.994Q616.396 114.961 617.108 114.963Q617.82 114.966 618.531 115.006Q619.242 115.046 619.95 115.122Q620.658 115.198 621.361 115.31Q622.064 115.423 622.761 115.572Q623.457 115.72 624.145 115.905Q624.833 116.089 625.51 116.309Q626.188 116.528 626.853 116.782Q627.518 117.036 628.169 117.325Q628.821 117.613 629.456 117.934C636.813 121.578 641.665 127.774 644.253 135.434Q644.6 136.473 644.899 137.526L589.069 137.518Z"/>
	<path fill="#982309" d="M589.069 137.518L644.899 137.526Q645.063 144.443 645.1 151.361C626.332 150.218 607.1 151.041 588.283 151.055C587.717 146.806 587.88 141.652 589.069 137.518Z"/>
	<path fill="#3082BA" d="M475.758 137.524C477.83 126.863 483.041 117.593 492.135 111.394Q492.857 110.892 493.603 110.428Q494.349 109.963 495.117 109.536Q495.885 109.11 496.674 108.722Q497.463 108.334 498.27 107.987Q499.078 107.639 499.901 107.332Q500.725 107.026 501.563 106.761Q502.401 106.496 503.251 106.273Q504.101 106.05 504.962 105.87Q505.822 105.691 506.69 105.554Q507.559 105.418 508.433 105.325Q509.307 105.233 510.184 105.184Q511.062 105.135 511.941 105.131Q512.82 105.126 513.698 105.166Q514.576 105.205 515.451 105.288Q516.326 105.372 517.195 105.499Q518.065 105.626 518.927 105.797C529.235 107.803 538.09 114.239 543.82 122.954C546.824 127.523 548.464 132.182 549.667 137.484C549.947 141.926 549.603 146.651 550.198 151.012C550.207 151.293 550.219 151.573 550.225 151.854C550.474 163.209 546.73 175.583 538.785 183.876C531.882 191.083 522.481 195.775 512.429 195.931C502.827 196.08 493.929 192.201 487.098 185.509C477.837 176.436 474.891 163.584 474.854 151.029C474.965 146.5 475.339 142.032 475.758 137.524Z"/>
	<path fill="#FEFEFE" d="M485.555 137.516C487.799 129.279 491.976 122.213 499.709 117.935Q500.289 117.611 500.885 117.317Q501.481 117.023 502.091 116.759Q502.701 116.495 503.324 116.262Q503.946 116.03 504.58 115.829Q505.213 115.628 505.856 115.459Q506.499 115.29 507.15 115.154Q507.8 115.018 508.457 114.915Q509.113 114.811 509.774 114.742Q510.435 114.672 511.099 114.635Q511.762 114.599 512.427 114.596Q513.092 114.593 513.756 114.623Q514.42 114.654 515.081 114.718Q515.743 114.782 516.4 114.879Q517.058 114.977 517.709 115.107Q518.361 115.237 519.005 115.401Q519.65 115.564 520.285 115.759C528.068 118.205 534.356 124.019 538.117 131.184C539.185 133.218 540.083 135.376 540.976 137.492C541.278 142.015 541.472 146.489 541.465 151.024C540.732 160.756 539.437 168.933 532.603 176.376C527.526 181.906 520.327 185.5 512.766 185.659C505.658 185.807 499.047 183.13 493.931 178.221C486.358 170.954 484.627 161.013 484.496 150.976C484.714 146.478 484.846 141.97 485.555 137.516Z"/>
	<path fill="#FEFEFE" d="M485.555 137.516C487.799 129.279 491.976 122.213 499.709 117.935Q500.289 117.611 500.885 117.317Q501.481 117.023 502.091 116.759Q502.701 116.495 503.324 116.262Q503.946 116.03 504.58 115.829Q505.213 115.628 505.856 115.459Q506.499 115.29 507.15 115.154Q507.8 115.018 508.457 114.915Q509.113 114.811 509.774 114.742Q510.435 114.672 511.099 114.635Q511.762 114.599 512.427 114.596Q513.092 114.593 513.756 114.623Q514.42 114.654 515.081 114.718Q515.743 114.782 516.4 114.879Q517.058 114.977 517.709 115.107Q518.361 115.237 519.005 115.401Q519.65 115.564 520.285 115.759C528.068 118.205 534.356 124.019 538.117 131.184C539.185 133.218 540.083 135.376 540.976 137.492Q513.266 137.835 485.555 137.516Z"/>
	<path fill="#982309" d="M540.976 137.492C541.278 142.015 541.472 146.489 541.465 151.024L484.496 150.976C484.714 146.478 484.846 141.97 485.555 137.516Q513.266 137.835 540.976 137.492Z"/>
	<path fill="#3082BA" d="M264.713 137.024C267.643 125.609 273.046 115.751 283.448 109.55C291.522 104.737 301.96 103.582 311.025 105.879Q311.903 106.107 312.769 106.377Q313.634 106.648 314.486 106.962Q315.337 107.275 316.171 107.63Q317.006 107.986 317.822 108.382Q318.638 108.778 319.433 109.214Q320.228 109.65 321.001 110.126Q321.774 110.601 322.522 111.113Q323.27 111.626 323.992 112.176Q324.714 112.725 325.407 113.309Q326.101 113.894 326.765 114.512Q327.429 115.13 328.061 115.78Q328.694 116.43 329.293 117.111Q329.892 117.792 330.457 118.502Q331.022 119.211 331.551 119.948Q332.08 120.685 332.572 121.447Q333.064 122.209 333.517 122.995C336.076 127.359 338.102 132.556 338.762 137.586C339.047 141.955 338.602 147.073 339.383 151.317C338.992 162.723 336.679 173.095 329.381 182.176C323.231 189.827 314.663 194.424 304.907 195.461C295.827 196.427 287.617 193.794 280.566 188.063C268.762 178.468 265.335 166.004 263.919 151.404C263.984 146.559 264.249 141.847 264.713 137.024Z"/>
	<path fill="#FEFEFE" d="M274.917 137.199C277.64 128.819 280.819 121.906 289.073 117.614C295.617 114.212 303.679 113.221 310.697 115.677C318.17 118.29 323.841 124.373 327.106 131.444C328.061 133.511 328.81 135.731 329.516 137.895C330.614 141.483 330.419 147.708 329.734 151.403C329.047 160.703 327.217 169.971 320.857 177.178C316.284 182.36 310.002 185.46 303.063 185.631Q302.398 185.645 301.733 185.627Q301.069 185.608 300.406 185.557Q299.743 185.505 299.083 185.422Q298.423 185.338 297.769 185.222Q297.114 185.106 296.466 184.958Q295.817 184.81 295.177 184.63Q294.537 184.45 293.906 184.239Q293.276 184.028 292.656 183.786Q292.037 183.544 291.43 183.273Q290.823 183.001 290.23 182.699Q289.638 182.398 289.06 182.068Q288.483 181.738 287.923 181.379Q287.362 181.021 286.82 180.636Q286.279 180.251 285.756 179.839Q285.234 179.428 284.732 178.991Q284.231 178.555 283.751 178.094C276.222 170.909 274.125 161.164 273.884 151.145C273.962 146.493 273.936 141.767 274.917 137.199Z"/>
	<path fill="#FEFEFE" d="M274.917 137.199C277.64 128.819 280.819 121.906 289.073 117.614C295.617 114.212 303.679 113.221 310.697 115.677C318.17 118.29 323.841 124.373 327.106 131.444C328.061 133.511 328.81 135.731 329.516 137.895C311.344 137.574 293.065 137.929 274.917 137.199Z"/>
	<path fill="#982309" d="M274.917 137.199C293.065 137.929 311.344 137.574 329.516 137.895C330.614 141.483 330.419 147.708 329.734 151.403C311.183 150.551 292.458 151.068 273.884 151.145C273.962 146.493 273.936 141.767 274.917 137.199Z"/>
	<path fill="#3082BA" d="M370.6 137.781C372.78 126.558 377.924 117.416 387.578 110.928C395.508 105.6 405.699 104.065 414.986 106.001C424.959 108.08 433.843 114.998 439.262 123.503C442.21 128.129 443.599 132.76 445.016 138.004C445.502 142.285 445.533 146.547 445.578 150.848C444.833 162.764 442.346 173.774 434.191 182.897C427.629 190.237 418.352 195.408 408.407 195.814C399.517 196.177 391.25 192.649 384.782 186.651C374.061 176.709 370.792 165.438 370.211 151.245C370.077 146.738 370.343 142.278 370.6 137.781Z"/>
	<path fill="#FEFEFE" d="M380.486 137.267C383.657 128.517 387.624 121.191 396.515 117.04C402.958 114.033 409.858 113.93 416.438 116.523C424.6 119.739 430.55 126.175 433.925 134.158Q434.551 135.647 435.133 137.153C436.359 141.574 436.063 146.701 436.074 151.253C435.93 159.198 433.445 167.989 428.678 174.421C424.436 180.145 418.413 184.165 411.247 185.019Q410.609 185.1 409.969 185.149Q409.328 185.198 408.686 185.215Q408.043 185.232 407.401 185.218Q406.758 185.203 406.118 185.157Q405.477 185.11 404.839 185.032Q404.201 184.954 403.568 184.845Q402.935 184.735 402.308 184.595Q401.681 184.454 401.061 184.283Q400.442 184.111 399.832 183.909Q399.222 183.707 398.623 183.475Q398.023 183.243 397.436 182.982Q396.849 182.721 396.276 182.431Q395.702 182.141 395.144 181.823Q394.586 181.505 394.044 181.16Q393.502 180.814 392.977 180.443Q392.453 180.071 391.948 179.674C382.942 172.458 380.872 161.849 379.857 150.993C379.191 146.873 379.272 141.28 380.486 137.267Z"/>
	<path fill="#FEFEFE" d="M380.486 137.267C383.657 128.517 387.624 121.191 396.515 117.04C402.958 114.033 409.858 113.93 416.438 116.523C424.6 119.739 430.55 126.175 433.925 134.158Q434.551 135.647 435.133 137.153C416.991 137.431 398.606 138.054 380.486 137.267Z"/>
	<path fill="#982309" d="M380.486 137.267C398.606 138.054 416.991 137.431 435.133 137.153C436.359 141.574 436.063 146.701 436.074 151.253C417.404 150.527 398.548 151.027 379.857 150.993C379.191 146.873 379.272 141.28 380.486 137.267Z"/>
	<path fill="#982309" d="M338.762 137.586L370.6 137.781C370.343 142.278 370.077 146.738 370.211 151.245Q354.796 151.004 339.383 151.317C338.602 147.073 339.047 141.955 338.762 137.586Z"/>
	<path fill="#982309" d="M549.667 137.484L579.851 137.527C579.406 142.041 579.166 146.562 578.917 151.091Q564.558 150.862 550.198 151.012C549.603 146.651 549.947 141.926 549.667 137.484Z"/>
	<path fill="#982309" d="M445.016 138.004Q460.383 137.497 475.758 137.524C475.339 142.032 474.965 146.5 474.854 151.029L445.578 150.848C445.533 146.547 445.502 142.285 445.016 138.004Z"/>
	<path fill="#982309" d="M654.228 137.57C664.156 137.65 674.264 137.31 684.164 137.785L683.56 151.151C673.921 150.893 664.261 151.033 654.619 151.054C654.189 146.639 654.341 142.015 654.228 137.57Z"/>
	<path fill="#491B01" d="M250.639 395.54C267.139 395.227 283.68 395.421 300.184 395.403C309.871 395.393 319.939 394.785 329.565 395.541C331.8 395.717 333.807 396.044 335.871 396.981C337.024 400.167 337.006 482.975 335.956 485.18C335.53 486.075 334.908 486.07 334.037 486.439L280.532 486.35C271.312 486.382 261.21 487.31 252.134 486.231C250.759 486.068 249.94 485.692 249.11 484.596C248.256 483.466 248.201 481.891 248.143 480.504C247.486 464.78 248.435 448.755 248.351 432.993C248.306 424.39 247.038 406.646 248.209 399.165C248.499 397.312 249.146 396.596 250.639 395.54Z"/>
	<path fill="#FEFEFE" d="M256.497 404.414L327.69 404.488L327.548 477.463L256.624 477.449L256.497 404.414Z"/>
	<path fill="#D86745" d="M310.151 423.288C310.635 423.34 311.001 423.365 311.462 423.459C312.827 423.737 314.218 424.632 314.874 425.878C315.634 427.319 315.35 428.749 314.75 430.165C312.234 436.096 291.195 456.428 285.368 458.891C280.976 457.686 275.967 451.623 272.658 448.504C271.321 447.41 269.7 446.109 268.786 444.641C267.854 443.145 267.276 439.884 268.028 438.229C268.625 436.917 269.016 436.846 270.27 436.325C275.875 436.614 281.473 444.102 285.195 447.913C293.647 439.876 301.436 431.015 310.151 423.288Z"/>
	<path fill="#491B01" d="M251.751 761.247L305.596 761.125C315.881 761.124 326.245 760.879 336.519 761.32C337.356 770.082 337.702 844.77 336.594 848.978C335.568 849.944 334.453 849.89 333.125 850.004C314.347 849.951 295.577 850.338 276.8 850.426C268.85 850.464 260.393 851.099 252.495 850.449C251.216 850.343 250.273 850.308 249.26 849.439C248.613 847.625 248.422 845.866 248.367 843.951C247.969 830.143 248.521 816.227 248.441 802.404C248.385 792.729 247.083 770.586 248.792 762.706C249.848 761.49 250.222 761.579 251.751 761.247Z"/>
	<path fill="#FEFEFE" d="M256.974 769.99C280.676 769.488 304.485 769.701 328.194 769.938Q328.534 805.491 328.421 841.045C304.707 841.741 280.802 841.129 257.069 841.157L256.974 769.99Z"/>
	<path fill="#D86745" d="M311.435 787.302C312.55 787.229 313.441 787.465 314.459 787.898C315.451 788.319 316.206 788.984 316.565 790.006C317.115 791.575 316.767 792.733 316.058 794.16C313.385 799.54 290.021 823.125 284.162 825.041C279.897 823.838 275.885 818.955 272.722 815.928C270.896 814.239 268.186 812.202 267.463 809.736C267.048 808.32 267.444 806.202 268.409 805.031C268.889 804.449 269.509 804.157 270.239 804.097C274.815 803.718 281.693 811.462 284.872 814.343C293.821 805.424 302.269 796.023 311.435 787.302Z"/>
	<path fill="#491B01" d="M259.209 519.237L310.383 519.044C318.332 519.026 328.185 517.947 335.932 519.587L335.765 520.676L336.267 520.525C337.347 531.535 336.676 543.144 336.672 554.224C336.665 571.66 336.915 589.141 336.481 606.571L326.014 606.587L278.23 606.525C269.92 606.545 261.268 607.162 253.007 606.532C251.574 606.422 250.387 606.337 249.119 605.605C248.167 603.322 248.088 600.985 248.058 598.542C247.873 583.66 248.095 568.745 248.05 553.858C248.02 544.097 247.457 533.995 248.127 524.266C248.2 523.216 248.248 521.162 249.112 520.457C251.323 518.653 256.462 519.254 259.209 519.237Z"/>
	<path fill="#FEFEFE" d="M256.611 528.076C280.236 527.359 304.234 527.739 327.882 527.931C327.939 551.266 328.516 574.776 327.825 598.096Q292.428 597.518 257.026 597.773L256.611 528.076Z"/>
	<path fill="#D86745" d="M311.168 544.846C312.037 544.927 312.586 545.043 313.34 545.545C314.4 546.249 315.208 547.31 315.37 548.601C315.568 550.168 314.84 552.011 313.972 553.284C310.979 557.669 295.505 573.786 291.314 577.336C289.751 578.66 288.221 579.739 286.183 580.094C281.494 578.48 276.432 571.759 272.697 568.376C270.521 566.491 268.042 564.806 267.48 561.792C267.173 560.145 267.667 559.275 268.582 557.951C269.447 557.442 270 557.178 271.024 557.082C275.826 556.631 282.786 565.689 286.393 568.711C291.803 562.641 304.746 548.536 311.168 544.846Z"/>
	<path fill="#491B01" d="M259.425 640.756Q283.412 640.492 307.4 640.596C314.465 640.574 328.767 639.423 335.061 641.162C335.66 641.906 335.543 641.624 335.839 642.568C337.399 647.542 337.112 714.602 336.535 723.18C336.42 724.891 336.252 726.353 335.431 727.87C332.629 728.764 328.253 728.187 325.25 728.154L275.039 728.161C267.757 728.159 258.646 728.976 251.567 728.003C250.482 727.853 250.032 727.617 249.192 726.954C248.366 725.513 248.301 723.896 248.286 722.267C248.154 707.893 248.482 693.501 248.396 679.119C248.332 668.455 247.65 657.376 248.333 646.751C248.409 645.58 248.52 642.653 249.506 641.868C251.727 640.103 256.715 640.741 259.425 640.756Z"/>
	<path fill="#FEFEFE" d="M257.156 649.593L327.873 649.524L328.082 719.582L256.912 719.53C256.388 696.276 256.72 672.85 257.156 649.593Z"/>
	<path fill="#D86745" d="M310.824 667.906C312.306 667.915 313.901 667.941 315.1 668.962C315.72 669.49 316.194 670.271 316.307 671.075C316.681 673.736 314.703 676.414 313.133 678.374C309.027 683.5 291.098 702.468 285.922 702.973C281 701.128 276.396 695.537 272.609 691.944C270.597 690.263 267.63 688.142 266.795 685.558C266.263 683.91 266.716 682.081 267.474 680.602C268.136 680.147 268.395 679.792 269.246 679.792C274.795 679.795 282.061 688.704 285.881 692.535C294.676 685.152 301.978 674.713 310.824 667.906Z"/>
	<path fill="#491B01" d="M240.713 333.108C253.486 332.716 266.41 333.221 279.199 333.273L354.681 333.344L628.697 333.222L742.796 333.286C751.64 333.319 776.223 332.234 783.09 333.958C784.157 334.226 785.554 334.662 786.375 335.429C787.412 336.398 787.327 336.945 787.221 338.209C786.222 339.826 785.447 340.862 783.904 341.986C775.173 343.48 765.159 342.487 756.245 342.453L705.311 342.424L514.382 342.43L321.667 342.465L268.056 342.425C259.577 342.447 249.97 343.356 241.589 342.331C240.363 342.181 239.021 341.921 238.305 340.814C237.411 339.431 237.116 337.365 237.616 335.778C238.038 334.435 239.573 333.753 240.713 333.108Z"/>
	<path fill="#D86745" d="M368.075 535.534C376.893 534.651 386.446 535.436 395.346 535.442L451.616 535.432L555.714 535.443C572.217 535.446 588.81 535.023 605.301 535.389C607.353 535.435 609.524 535.323 611.187 536.735C612.26 537.646 612.647 538.765 612.601 540.134C612.525 542.429 611.478 543.696 609.911 545.257L418.116 544.991C403.465 544.939 388.79 545.3 374.144 545.076C371.656 545.037 367.947 544.984 366.273 542.797C365.552 541.854 365.434 540.677 365.542 539.538C365.732 537.549 366.623 536.698 368.075 535.534Z"/>
	<path fill="#D86745" d="M369.245 780.072C386.507 779.198 404.115 779.943 421.415 779.97L515.406 780.034L576.091 780.113C586.754 780.064 597.93 779.204 608.515 780.033C610.135 780.16 611.817 780.583 612.8 782.007C613.658 783.251 613.587 784.824 613.179 786.211C612.656 787.986 611.663 788.685 610.178 789.569C596.112 790.419 581.687 789.713 567.582 789.667L496.511 789.665L414.681 789.526C400.93 789.499 386.947 790.039 373.233 789.356C371.162 789.253 368.646 789.152 367.072 787.617C366.177 786.744 365.861 785.513 366.036 784.296C366.342 782.166 367.595 781.198 369.245 780.072Z"/>
	<path fill="#D86745" d="M370.619 414.633C383.903 414.348 397.262 414.654 410.552 414.639L504.057 414.724L585.909 414.664C592.121 414.7 598.361 414.36 604.564 414.501C606.241 414.539 608.231 414.556 609.774 415.287C610.941 415.84 611.938 416.761 612.302 418.035C612.648 419.246 612.345 420.784 611.646 421.837C610.685 423.286 609.65 423.579 608.075 423.982L457.901 424.23L400.657 424.133C391.389 424.088 381.67 424.669 372.462 423.846C370.161 423.641 366.752 423.577 365.37 421.5C364.586 420.322 364.696 419.478 364.879 418.148C366.492 415.763 367.827 415.226 370.619 414.633Z"/>
	<path fill="#D86745" d="M371.894 658.703C391.786 659.326 411.784 658.97 431.69 659.01L543.665 659.175L586.167 659.249C593.336 659.262 600.866 658.784 607.994 659.376C609.282 659.482 610.697 659.585 611.666 660.549C612.646 661.524 613.028 662.638 613.015 664.003C613.004 665.224 612.333 666.619 611.396 667.384C610.173 668.382 608.606 668.284 607.125 668.288C558.896 668.874 510.608 668.273 462.374 668.253C432.508 668.24 402.494 669.193 372.645 668.545C371.041 668.51 369.321 668.569 367.87 667.777C366.589 667.078 365.562 665.822 365.294 664.366C365.023 662.897 365.615 661.539 366.514 660.415C367.826 658.778 369.966 658.893 371.894 658.703Z"/>
	<path fill="#70C1E7" d="M467.265 825.75C497.463 825.394 527.69 825.619 557.891 825.602L590.852 825.599C596.349 825.601 602.003 825.295 607.481 825.636C608.954 825.728 610.462 825.855 611.642 826.847C612.743 827.772 612.795 828.317 613.007 829.64C612.642 830.872 612.276 831.702 611.323 832.599C609.974 833.868 608.001 834.57 606.172 834.685C603.131 834.875 599.878 834.521 596.82 834.486C590.76 834.416 584.691 834.499 578.63 834.522L510.878 834.674L416.869 834.748C402.691 834.756 388.232 835.448 374.091 834.908C372.207 834.836 369.577 834.779 367.938 833.844C366.95 833.28 366.25 832.058 366.134 830.949Q366.111 830.709 366.114 830.468Q366.117 830.227 366.147 829.988Q366.177 829.749 366.233 829.514Q366.289 829.28 366.371 829.053Q366.452 828.827 366.559 828.61Q366.665 828.394 366.795 828.191Q366.924 827.988 367.076 827.8Q367.227 827.613 367.398 827.443C368.651 826.191 370.279 826.108 371.945 825.995C381.206 825.366 390.901 826.093 400.221 826.046L467.265 825.75Z"/>
	<path fill="#70C1E7" d="M368.736 704.537C368.904 704.535 369.072 704.529 369.24 704.53L533.458 704.517L583.001 704.482C590.616 704.474 598.327 704.166 605.93 704.409C607.403 704.456 608.81 704.738 610.114 705.449C610.733 705.786 611.25 706.187 611.715 706.729C612.42 707.551 612.582 708.65 612.473 709.683C612.284 711.476 611.128 712.43 609.84 713.505Q530.988 712.723 452.134 713.265L400.045 713.47C390.817 713.502 381.416 713.907 372.204 713.447C369.891 713.332 368.495 713.144 366.668 711.7C366.083 710.527 365.825 710.132 365.96 708.787C366.16 706.785 367.309 705.78 368.736 704.537Z"/>
	<path fill="#70C1E7" d="M371.121 582.239C386.607 581.789 402.172 582.012 417.669 581.974L503.377 581.959L568.097 582.073C580.277 582.062 592.56 581.705 604.731 582.063C606.399 582.112 608.588 582.064 610.084 582.837C611.182 583.405 611.914 584.542 612.077 585.758C612.237 586.954 611.913 588.384 611.065 589.28C610.002 590.403 609.031 590.332 607.625 590.502L435.763 590.432C415.593 590.403 395.252 591.155 375.115 590.601C372.995 590.543 369.87 590.567 367.916 589.795C366.735 589.328 366.397 588.403 365.897 587.32C365.914 586.331 365.928 585.69 366.491 584.824C367.731 582.92 369.013 582.557 371.121 582.239Z"/>
	<path fill="#70C1E7" d="M366.664 461.512C380.223 460.96 393.964 461.453 407.542 461.482L480.576 461.497L566.338 461.473C579.637 461.472 593.115 460.968 606.397 461.391C607.775 461.434 610.103 461.585 611.256 462.435C611.97 462.962 612.474 463.422 612.661 464.297C613.068 466.196 612.182 467.473 611.143 468.933C600.491 469.822 589.201 469.104 578.486 469.115L521.904 469.486L430.997 469.288L387.558 469.431C382.698 469.441 377.764 469.937 372.918 469.775C371.388 469.724 369.803 469.597 368.351 469.072C367.385 468.722 366.422 468.057 366.028 467.082C365.259 465.179 365.921 463.309 366.664 461.512Z"/>
	<path fill="#D86745" d="M320.913 262.039Q321.482 262 322.053 261.988Q322.623 261.977 323.193 261.994Q323.764 262.01 324.333 262.055Q324.901 262.099 325.467 262.172Q326.033 262.244 326.595 262.344Q327.157 262.444 327.713 262.571Q328.269 262.699 328.818 262.853Q329.367 263.008 329.909 263.189Q330.45 263.37 330.981 263.578Q331.513 263.785 332.033 264.018Q332.554 264.252 333.063 264.51Q333.571 264.768 334.067 265.052Q334.562 265.335 335.043 265.642Q335.524 265.949 335.989 266.279Q336.454 266.609 336.903 266.962Q337.352 267.314 337.782 267.688Q338.213 268.063 338.625 268.457Q339.037 268.852 339.429 269.267Q339.821 269.681 340.192 270.114Q340.564 270.548 340.913 270.998Q341.263 271.449 341.59 271.917Q341.917 272.384 342.221 272.867Q342.525 273.35 342.805 273.847Q343.084 274.345 343.34 274.855Q343.595 275.365 343.824 275.888Q344.054 276.41 344.258 276.943Q344.462 277.475 344.64 278.018Q344.817 278.56 344.968 279.11Q345.119 279.66 345.243 280.217Q345.367 280.774 345.463 281.337Q345.559 281.899 345.628 282.466Q345.696 283.032 345.737 283.601Q345.778 284.17 345.791 284.74Q345.803 285.311 345.788 285.881Q345.773 286.452 345.73 287.02Q345.687 287.589 345.616 288.155Q345.546 288.722 345.447 289.284Q345.349 289.845 345.223 290.402Q345.097 290.958 344.944 291.508Q344.791 292.058 344.611 292.599Q344.431 293.141 344.225 293.673Q344.019 294.205 343.787 294.726Q343.555 295.247 343.298 295.757Q343.041 296.266 342.759 296.762Q342.478 297.258 342.172 297.74Q341.866 298.222 341.537 298.688Q341.208 299.154 340.857 299.603Q340.506 300.053 340.133 300.485Q339.76 300.916 339.366 301.329Q338.972 301.742 338.559 302.135Q338.145 302.529 337.713 302.901Q337.281 303.274 336.831 303.624Q336.381 303.975 335.915 304.304Q335.448 304.632 334.966 304.937Q334.484 305.242 333.987 305.523Q333.491 305.805 332.981 306.061Q332.472 306.317 331.95 306.549Q331.428 306.78 330.896 306.985Q330.364 307.191 329.822 307.37Q329.28 307.549 328.731 307.701Q328.181 307.853 327.624 307.979Q327.068 308.104 326.505 308.202Q325.943 308.299 325.377 308.37Q324.811 308.44 324.242 308.482Q323.671 308.524 323.099 308.539Q322.526 308.553 321.954 308.539Q321.382 308.526 320.811 308.484Q320.24 308.442 319.672 308.372Q319.103 308.302 318.539 308.204Q317.975 308.106 317.417 307.981Q316.858 307.855 316.306 307.703Q315.755 307.55 315.211 307.37Q314.667 307.191 314.133 306.985Q313.599 306.779 313.076 306.546Q312.553 306.314 312.041 306.057Q311.53 305.799 311.032 305.517Q310.534 305.234 310.05 304.928Q309.567 304.621 309.099 304.291Q308.631 303.961 308.18 303.609Q307.729 303.256 307.296 302.882Q306.863 302.508 306.448 302.113Q306.034 301.718 305.64 301.303Q305.245 300.888 304.872 300.454Q304.498 300.02 304.146 299.568Q303.795 299.117 303.466 298.648Q303.137 298.18 302.831 297.696Q302.525 297.212 302.244 296.713Q301.962 296.215 301.705 295.703Q301.449 295.191 301.218 294.667Q300.986 294.144 300.781 293.609Q300.576 293.075 300.397 292.531Q300.219 291.987 300.067 291.435Q299.915 290.883 299.791 290.324Q299.666 289.765 299.57 289.201Q299.473 288.637 299.404 288.068Q299.335 287.5 299.294 286.929Q299.253 286.358 299.24 285.786Q299.227 285.213 299.243 284.641Q299.258 284.069 299.302 283.498Q299.345 282.927 299.417 282.359Q299.488 281.791 299.587 281.227Q299.687 280.663 299.813 280.105Q299.94 279.547 300.094 278.996Q300.249 278.444 300.43 277.901Q300.611 277.358 300.818 276.825Q301.026 276.291 301.259 275.768Q301.493 275.246 301.752 274.735Q302.011 274.224 302.294 273.727Q302.578 273.23 302.886 272.747Q303.194 272.265 303.525 271.798Q303.856 271.331 304.21 270.881Q304.564 270.43 304.939 269.998Q305.314 269.566 305.711 269.153Q306.107 268.74 306.523 268.346Q306.939 267.953 307.374 267.581Q307.809 267.208 308.261 266.858Q308.714 266.507 309.183 266.179Q309.652 265.852 310.137 265.547Q310.622 265.243 311.121 264.963Q311.621 264.682 312.133 264.427Q312.645 264.172 313.17 263.942Q313.694 263.712 314.229 263.508Q314.764 263.305 315.308 263.127Q315.853 262.95 316.405 262.8Q316.958 262.65 317.517 262.527Q318.076 262.404 318.64 262.309Q319.205 262.213 319.773 262.146Q320.342 262.078 320.913 262.039Z"/>
	<path fill="#FEFEFE" d="M320.101 270.625C322.209 270.465 324.252 270.356 326.298 270.997C329.551 272.015 332.161 274.468 333.557 277.556C335.468 281.782 335.588 287.177 333.785 291.458C332.004 295.687 328.909 297.91 324.769 299.574C322.244 299.864 320.086 299.909 317.71 298.877C314.471 297.469 312.177 294.772 310.936 291.504C309.307 287.215 309.671 281.747 311.657 277.634C313.537 273.743 316.078 271.945 320.101 270.625Z"/>
	<path fill="#D86745" d="M374.251 261.646C378.418 261.321 383.26 262.534 386.799 264.72C391.803 267.812 394.791 272.829 396.13 278.465C397.757 285.31 397.163 292.772 393.274 298.775C389.404 304.748 384.188 307.085 377.506 308.531C371.842 308.697 366.779 308.479 361.893 305.246C357.039 302.034 354.126 297.081 353.192 291.386C352.028 284.287 352.902 276.211 357.291 270.332C361.526 264.659 367.495 262.49 374.251 261.646Z"/>
	<path fill="#FEFEFE" d="M374.513 270.597C376.82 270.734 378.983 271.184 380.993 272.387C384.073 274.23 386.014 277.337 386.803 280.796C387.841 285.345 387.166 290.73 384.526 294.639C382.187 298.103 379.3 299.541 375.288 300.338C373.135 300.161 371.232 299.862 369.313 298.807C365.865 296.913 363.645 293.603 362.735 289.824C361.661 285.363 362.206 280.085 364.822 276.235C367.372 272.482 370.301 271.481 374.513 270.597Z"/>
	<path fill="#D86745" d="M740.148 637.847C741.482 637.857 742.411 638.131 743.528 638.858C744.975 639.8 746.501 641.188 746.555 643.059C746.562 643.328 746.397 644.411 746.254 644.718C745.042 647.319 704.035 687.003 699.781 690.935C692.592 686.009 686.119 678.915 679.744 672.941C677.784 671.154 674.395 668.735 673.585 666.165C673.261 665.137 673.357 664.195 673.893 663.239C674.643 661.9 675.729 660.83 677.325 660.632C683.072 659.919 694.984 674.258 699.483 678.263C713.55 665.418 725.542 650.206 740.148 637.847Z"/>
	<path fill="#D86745" d="M741.016 759.315C742.897 759.357 744.747 760.002 746.113 761.361C747.162 762.405 747.346 763.159 747.462 764.592C746.621 767.909 705.573 809.743 699.813 814.408C692.906 808.12 686.317 801.521 679.701 794.931C678.379 793.822 677.047 792.717 675.765 791.563C674.728 790.629 673.545 789.41 673.621 787.9C673.749 785.328 676.797 783.038 678.541 781.351C685.303 788.3 693.085 794.297 699.453 801.595C713.629 787.808 726.852 773.093 741.016 759.315Z"/>
	<path fill="#D86745" d="M740.365 516.376C740.634 516.387 740.902 516.39 741.17 516.409C742.861 516.529 745.192 518.016 746.103 519.441C746.869 520.638 746.779 521.103 746.628 522.43C741.354 529.411 732.332 536.97 725.951 543.228C718.338 550.693 706.035 564.235 697.628 569.982C692.1 564.182 686.275 558.717 680.434 553.235C679.158 552.266 677.847 551.303 676.651 550.235C675.292 549.02 673.683 546.828 673.906 544.894C674.067 543.49 674.851 543.014 675.826 542.145L675.828 542.951L676.394 541.861C677.309 541.535 678.052 541.351 679.019 541.285C682.142 541.072 695.246 554.664 698.38 557.539C708.456 548.25 717.925 538.005 727.677 528.342C731.751 524.306 735.707 519.742 740.365 516.376Z"/>
	<path fill="#D86745" d="M741.393 390.958C742.987 391.335 744.457 391.693 745.75 392.759C747.017 393.805 747.24 394.757 747.369 396.332C745.809 399.817 703.837 440.461 698.417 445.094C692.516 439.702 686.965 433.86 681.18 428.33C679.387 426.693 677.227 424.984 675.845 422.985C674.778 421.439 674.556 420.292 674.9 418.466C675.821 417.178 677.253 416.284 678.855 416.1C682.248 415.711 695.196 429.656 698.574 432.67Q712.218 418.203 726.609 404.479C731.326 399.923 736.062 394.771 741.393 390.958Z"/>
	<path fill="#D86745" d="M418.247 262.58C425.135 262.567 449.919 261.444 454.617 263.584C455.527 264.579 455.933 265.415 456.243 266.709C456.619 268.274 456.568 269.257 455.688 270.597C451.721 272.996 445.008 271.941 440.46 271.915L440.479 295.25C440.476 298.232 441.064 301.633 440.481 304.551C440.168 306.115 439.525 306.741 438.266 307.642C435.937 308.01 433.835 308.122 431.808 306.731C429.645 302.87 430.959 277.657 430.99 271.659C427.399 271.564 423.644 272.127 420.079 271.671C418.042 271.41 416.763 270.886 415.458 269.256C415.061 268.054 414.898 267.172 415.164 265.937C415.553 264.134 416.79 263.445 418.247 262.58Z"/>
	<path fill="#D86745" d="M260.026 262.642C265.609 262.459 289.944 261.454 293.976 262.963C294.783 264.056 295.02 264.878 295.12 266.207C295.243 267.827 295.009 269.342 293.745 270.505C291.117 272.921 285.191 272.201 281.799 272.218L281.6 296.104C281.648 299.409 282.477 304.568 280.341 307.303C279.448 307.828 278.727 308.171 277.691 308.247C275.811 308.384 273.85 307.85 272.5 306.486C270.323 304.287 271.404 276.647 271.436 271.848C268.144 271.912 260.573 272.585 258.245 269.73C257.776 269.154 257.366 268.383 257.42 267.625C257.559 265.694 258.724 263.994 260.026 262.642Z"/>
	<path fill="#70C1E7" d="M676.04 583.664C696.049 583.325 716.263 583.345 736.271 583.576C739.014 583.607 741.683 583.848 743.68 585.89C744.169 587.036 744.291 587.952 743.781 589.15C743.205 590.501 742.097 591.046 740.88 591.667C730.736 592.464 720.267 591.914 710.073 591.92C699.833 591.926 689.337 592.449 679.123 591.876C676.502 591.729 675.015 591.662 673.209 589.658C672.851 588.339 672.768 587.492 673.275 586.184C673.845 584.717 674.712 584.344 676.04 583.664Z"/>
	<path fill="#70C1E7" d="M734.173 828.241C735.38 828.304 736.698 828.245 737.782 828.835C738.637 829.3 739.195 830.544 739.293 831.464C739.427 832.738 738.99 833.957 738.047 834.833C736.647 836.134 734.584 836.482 732.755 836.644C727.896 837.075 722.711 836.462 717.814 836.46L677.875 836.508C676.587 836.536 675.044 836.681 673.997 835.777C673.063 834.97 672.389 833.768 672.399 832.516C672.411 831.089 672.88 830.33 673.823 829.336C679.021 827.359 724.812 828.369 734.173 828.241Z"/>
	<path fill="#70C1E7" d="M674.481 463.536C685.211 462.796 696.289 463.433 707.054 463.434C717.034 463.435 727.448 462.763 737.352 463.571C738.188 463.639 738.882 463.689 739.533 464.282C740.477 465.144 740.861 465.977 740.856 467.273C740.848 468.834 740.063 469.745 739.12 470.846C726.096 471.443 712.89 470.998 699.844 471.033C691.925 471.054 682.951 472.21 675.191 470.671C673.966 469.821 673.587 469.385 673.068 467.984C673.027 466.23 673.718 465.054 674.481 463.536Z"/>
	<path fill="#70C1E7" d="M674.771 707.562C687.087 707.391 699.429 707.692 711.75 707.612C719.614 707.561 728.218 706.769 736.015 707.577C737.646 707.747 738.335 707.938 739.612 708.97C740.115 710.123 740.217 710.979 739.836 712.216C739.404 713.621 738.559 714.08 737.378 714.747C730.119 715.267 676.416 715.748 673.228 713.778C672.028 713.037 672.119 712.42 672.015 711.172C672.612 709.455 673.409 708.734 674.771 707.562Z"/>
	<path fill="#3082BA" d="M894.794 437.624C899.679 437.217 903.22 437.272 907.73 439.63C912.292 442.015 917.041 446.558 918.571 451.606C920.756 458.819 919.509 490.408 919.53 500.283Q919.881 552.632 919.623 604.981C919.565 616.456 920.386 628.327 919.57 639.756C919.41 641.994 918.488 644.248 917.457 646.217C914.55 651.771 910.191 655.025 904.364 656.962C899.533 657.946 894.798 657.594 890.323 655.425C885.195 652.939 880.655 647.864 878.985 642.376C876.916 635.579 878.024 620.529 878.029 612.783L878.008 572.167L877.968 497.936C877.97 484.911 877.494 471.676 878.07 458.673C878.225 455.155 878.396 451.336 880.087 448.179C883.23 442.312 888.663 439.459 894.794 437.624Z"/>
	<path fill="#FEFEFE" d="M896.104 447.014C897.993 446.905 899.937 446.984 901.771 447.475C904.636 448.242 907.278 449.831 908.652 452.552C909.816 454.86 909.755 458.664 909.821 461.208C910.248 477.629 909.65 494.193 909.701 510.635C909.742 524.103 911.194 635.961 909.004 641.713C907.734 645.049 904.726 646.807 901.633 648.177C899.454 648.543 897.521 648.583 895.427 647.768C892.369 646.578 890.308 644.134 889.05 641.164C888.101 638.924 888.148 636.222 888.055 633.82C886.837 602.522 887.652 570.881 887.659 539.555L887.671 489.604C887.669 479.741 887.414 469.795 887.829 459.945C887.923 457.713 888.023 455.551 888.904 453.464C890.311 450.131 892.868 448.358 896.104 447.014Z"/>
	<path fill="#3082BA" d="M123.513 565.605C128.038 565.347 132.116 566.023 136.085 568.323C140.661 570.974 145 576.171 146.268 581.412C148.107 589.015 146.995 600.221 146.977 608.152L147.01 649.161L146.887 723.555C146.876 736.897 147.67 750.829 146.6 764.095C146.304 767.76 145.463 770.609 143.397 773.731C139.963 778.919 134.985 781.215 129.112 782.481C124.467 782.632 120.49 782.052 116.358 779.76C111.956 777.318 107.067 772.335 105.957 767.254C104.023 758.395 105.15 743.775 105.168 734.382L105.36 668.006L105.353 615.67C105.306 605.645 104.753 595.351 105.422 585.353C105.679 581.514 106.229 578.792 108.341 575.476C111.899 569.889 117.249 567.052 123.513 565.605Z"/>
	<path fill="#FEFEFE" d="M125.346 575.076C126.865 575.168 128.458 575.364 129.866 575.979C133.07 577.378 135.484 580.317 136.598 583.591C137.972 587.627 136.869 620.887 136.877 627.684C136.929 671.048 137.71 714.561 136.887 757.907C136.836 760.636 137.083 764.324 135.775 766.797C134.083 769.996 130.605 771.578 127.328 772.6C125.441 772.514 123.682 772.411 121.922 771.661Q121.422 771.453 120.946 771.193Q120.471 770.933 120.027 770.624Q119.582 770.314 119.173 769.958Q118.765 769.603 118.396 769.206Q118.028 768.809 117.704 768.374Q117.381 767.94 117.106 767.473Q116.83 767.006 116.607 766.513Q116.383 766.02 116.214 765.505C114.496 760.232 115.46 739.3 115.446 732.411L115.344 668.66L115.308 614.582C115.301 605.64 114.97 596.581 115.303 587.652C115.391 585.276 115.728 583.254 116.873 581.148C118.78 577.635 121.643 576.138 125.346 575.076Z"/>
	<path fill="#F09B8C" d="M896.07 214.132C900.119 213.882 903.955 214.07 907.953 214.741C908.039 218.046 907.965 220.433 910.157 223.119C910.959 223.476 911.273 223.772 912.187 223.634C914.904 223.224 916.398 220.669 917.979 218.664C920.806 220.712 925.84 224.348 926.857 227.768C927.551 230.104 925.601 231.563 924.473 233.343C923.672 234.608 923.861 235.715 924.126 237.099C925.737 238.771 928.233 238.722 930.287 239.75C931.617 240.417 932.635 241.831 933.059 243.236C933.883 245.963 933.376 250.707 932.091 253.233C930.477 254.667 927.926 254.501 925.859 254.681C925.178 255.178 924.712 255.283 924.482 256.147C923.68 259.165 926.837 260.862 927.983 263.247C928.544 264.415 928.448 265.624 927.88 266.768C926.759 269.023 922.826 272.645 920.431 273.43C917.37 274.435 916.091 271.17 913.638 270.223C912.681 269.853 911.449 270.04 910.56 270.496C907.394 272.119 909.482 274.976 908.127 277.526C907.43 278.837 906.209 278.957 904.93 279.373C901.92 279.585 898.658 280.213 895.853 278.879C893.958 276.975 894.261 274.543 893.28 272.219C892.662 270.755 890.771 270.235 889.402 269.654C888.029 270.718 886.489 272.112 884.889 272.808C883.212 273.538 880.925 273.472 879.271 272.704C875.844 271.114 874.027 267 872.677 263.698C873.874 262.264 875.961 260.225 876.334 258.363C876.996 255.065 869.851 254.252 868.217 251.289C867.019 249.116 867.012 245.658 867.726 243.335C869.111 238.829 872.897 239.501 876.171 237.519C877.013 237.01 876.84 236.876 877.078 235.983C876.346 233.613 874.461 231.552 872.999 229.571C874.95 226.592 878.99 220.857 882.623 220.199C885.216 219.729 886.528 222.195 888.496 223.295C889.44 223.822 890.509 223.865 891.466 223.324C892.803 222.569 892.951 221.071 893.065 219.699C893.133 218.885 893.125 217.913 893.332 217.123C893.737 215.569 894.803 214.925 896.07 214.132Z"/>
	<path fill="#FEFEFE" d="M896.554 229.92Q897.113 229.803 897.678 229.722Q898.243 229.642 898.812 229.599Q899.382 229.556 899.952 229.551Q900.523 229.545 901.093 229.578Q901.663 229.61 902.23 229.68Q902.796 229.749 903.357 229.856Q903.918 229.963 904.471 230.106Q905.023 230.25 905.565 230.429Q906.107 230.609 906.636 230.824Q907.165 231.039 907.678 231.288Q908.192 231.537 908.688 231.82Q909.184 232.102 909.66 232.417Q910.137 232.731 910.591 233.076Q911.046 233.422 911.477 233.796Q911.908 234.17 912.313 234.572Q912.719 234.974 913.097 235.402Q913.475 235.83 913.824 236.281Q914.173 236.733 914.492 237.207Q914.81 237.681 915.097 238.174Q915.384 238.668 915.637 239.18Q915.891 239.691 916.11 240.218Q916.33 240.745 916.514 241.285Q916.698 241.826 916.846 242.377Q916.995 242.928 917.106 243.488Q917.218 244.048 917.292 244.614Q917.367 245.18 917.404 245.75Q917.441 246.32 917.44 246.891Q917.44 247.461 917.402 248.031Q917.364 248.601 917.288 249.167Q917.213 249.732 917.1 250.292Q916.988 250.852 916.838 251.403Q916.689 251.954 916.504 252.494Q916.319 253.034 916.099 253.561Q915.878 254.087 915.624 254.598Q915.369 255.109 915.082 255.603Q914.794 256.096 914.475 256.569Q914.155 257.042 913.806 257.493Q913.456 257.944 913.077 258.371Q912.698 258.798 912.292 259.2Q911.886 259.601 911.454 259.975Q911.023 260.348 910.567 260.693Q910.112 261.037 909.635 261.351Q909.158 261.664 908.661 261.946Q908.165 262.227 907.651 262.476Q907.137 262.724 906.607 262.938Q906.078 263.152 905.536 263.331Q904.994 263.509 904.441 263.652Q903.888 263.794 903.327 263.9Q902.912 263.978 902.493 264.036Q902.075 264.094 901.654 264.132Q901.233 264.169 900.811 264.186Q900.389 264.203 899.966 264.2Q899.544 264.196 899.122 264.172Q898.7 264.147 898.28 264.103Q897.86 264.058 897.442 263.993Q897.025 263.928 896.611 263.842Q896.197 263.757 895.788 263.651Q895.379 263.546 894.976 263.42Q894.572 263.295 894.175 263.15Q893.778 263.005 893.389 262.841Q893 262.677 892.619 262.494Q892.238 262.311 891.866 262.11Q891.495 261.909 891.134 261.69Q890.772 261.471 890.422 261.234Q890.072 260.998 889.734 260.745Q889.395 260.492 889.07 260.222Q888.744 259.953 888.432 259.668Q888.12 259.383 887.823 259.083Q887.525 258.784 887.242 258.47Q886.959 258.156 886.692 257.828Q886.425 257.501 886.174 257.161Q885.924 256.821 885.69 256.469Q885.456 256.117 885.239 255.754Q885.023 255.392 884.824 255.019Q884.625 254.646 884.445 254.264Q884.265 253.881 884.104 253.491Q883.942 253.1 883.8 252.703Q883.658 252.305 883.536 251.9Q883.413 251.496 883.31 251.086Q883.208 250.676 883.125 250.262Q883.042 249.848 882.98 249.43Q882.918 249.012 882.876 248.591Q882.834 248.171 882.813 247.749Q882.792 247.327 882.791 246.904Q882.79 246.482 882.81 246.06Q882.83 245.638 882.87 245.217Q882.911 244.797 882.972 244.379Q883.032 243.96 883.114 243.546Q883.195 243.131 883.296 242.721Q883.397 242.311 883.519 241.906Q883.64 241.501 883.781 241.103Q883.921 240.704 884.081 240.313Q884.241 239.922 884.42 239.54Q884.599 239.157 884.796 238.783Q884.994 238.41 885.209 238.046Q885.424 237.683 885.657 237.33Q885.89 236.977 886.14 236.636Q886.389 236.296 886.655 235.967Q886.921 235.639 887.203 235.324Q887.485 235.009 887.781 234.708Q888.078 234.408 888.389 234.122Q888.7 233.836 889.025 233.565Q889.349 233.295 889.687 233.04Q890.024 232.786 890.374 232.548Q890.723 232.311 891.084 232.091Q891.444 231.87 891.815 231.668Q892.186 231.466 892.566 231.281Q892.946 231.097 893.335 230.932Q893.724 230.767 894.12 230.62Q894.517 230.474 894.92 230.347Q895.323 230.221 895.732 230.114Q896.141 230.007 896.554 229.92Z"/>
	<path fill="#F09B8C" d="M119.195 299.175C122.494 299.211 126.345 298.757 129.187 300.703C131.361 302.193 131.618 304.256 132.027 306.665L132.15 307.423L133.071 307.647C135.501 306.772 137.306 305.273 139.331 303.722C143.706 306.158 146.305 309.121 149.106 313.162C147.721 315.479 145.634 318.135 146.078 320.951C147.215 322.024 147.945 322.031 149.454 322.385C150.24 322.569 151.218 322.71 151.939 323.079C153.013 323.628 153.781 324.406 154.223 325.537C155.241 328.137 155.148 333.479 153.669 335.908C152.845 337.262 151.759 337.53 150.308 337.791C149.146 338 148.182 338.23 147.079 338.646C143.299 343.444 150.261 345.828 149.037 349.902C148.074 353.108 142.314 356.49 139.409 357.979L134.862 354.253L130.658 356.374C130.478 358.309 130.474 361.256 129.159 362.817C127.637 364.623 124.297 364.51 122.125 364.703C121.162 364.827 119.594 365.038 118.655 364.748C114.884 363.586 116.75 358.925 114.714 356.4C113.843 355.319 113.025 355 111.71 354.748C109.379 355.18 108.255 356.84 106.315 357.974C105.211 358.619 104.222 358.829 103.007 358.282C100.645 357.22 96.8879 353.08 95.9942 350.598C94.8295 347.363 97.0389 345.936 97.8745 343.16C98.1324 342.304 98.0904 341.614 97.7195 340.824C96.39 337.99 92.4872 337.156 89.7886 336.112C89.4782 332.065 89.7907 327.861 89.8699 323.799C92.3535 323.062 96.1998 322.525 97.6011 320.134C98.9635 317.81 97.1241 315.921 96.6411 313.626C96.3413 312.202 96.696 310.875 97.4863 309.691C98.8369 307.667 102.349 304.542 104.895 304.311C107.229 304.099 109.311 307.04 110.923 308.477C111.851 308.621 112.164 308.843 113.047 308.386C116.089 306.812 114.754 303.751 116.129 301.314C116.954 299.852 117.758 299.735 119.195 299.175Z"/>
	<path fill="#FEFEFE" d="M118.351 314.337Q118.913 314.213 119.483 314.126Q120.053 314.04 120.627 313.992Q121.201 313.944 121.777 313.934Q122.353 313.924 122.928 313.953Q123.503 313.981 124.075 314.048Q124.647 314.115 125.214 314.22Q125.78 314.325 126.338 314.467Q126.897 314.61 127.444 314.789Q127.991 314.969 128.526 315.184Q129.06 315.399 129.579 315.65Q130.097 315.901 130.598 316.185Q131.099 316.47 131.58 316.787Q132.06 317.104 132.519 317.453Q132.977 317.802 133.412 318.18Q133.846 318.559 134.254 318.965Q134.662 319.372 135.042 319.805Q135.422 320.238 135.772 320.695Q136.123 321.152 136.442 321.632Q136.761 322.112 137.047 322.611Q137.333 323.111 137.586 323.629Q137.838 324.147 138.055 324.68Q138.272 325.214 138.454 325.76Q138.635 326.307 138.779 326.865Q138.924 327.422 139.031 327.988Q139.137 328.554 139.206 329.126Q139.275 329.698 139.306 330.273Q139.337 330.849 139.329 331.425Q139.321 332 139.275 332.575Q139.229 333.149 139.144 333.719Q139.06 334.288 138.938 334.851Q138.816 335.414 138.656 335.968Q138.497 336.521 138.301 337.063Q138.105 337.605 137.873 338.132Q137.642 338.659 137.376 339.17Q137.109 339.681 136.81 340.173Q136.51 340.665 136.178 341.136Q135.846 341.606 135.484 342.054Q135.121 342.502 134.73 342.924Q134.338 343.347 133.919 343.742Q133.5 344.138 133.056 344.504Q132.612 344.871 132.144 345.207Q131.676 345.543 131.187 345.848Q130.698 346.152 130.19 346.423Q129.682 346.694 129.156 346.93Q128.631 347.167 128.091 347.368Q127.552 347.569 127 347.733Q126.448 347.898 125.886 348.025Q125.324 348.152 124.755 348.242Q124.345 348.307 123.931 348.352Q123.518 348.396 123.104 348.421Q122.689 348.446 122.273 348.451Q121.858 348.456 121.443 348.441Q121.027 348.426 120.613 348.391Q120.199 348.356 119.788 348.301Q119.376 348.246 118.967 348.171Q118.558 348.096 118.154 348.002Q117.749 347.908 117.349 347.794Q116.95 347.681 116.556 347.548Q116.162 347.415 115.775 347.264Q115.388 347.112 115.009 346.942Q114.63 346.772 114.26 346.584Q113.889 346.396 113.528 346.19Q113.167 345.985 112.816 345.762Q112.465 345.539 112.126 345.3Q111.786 345.061 111.458 344.805Q111.131 344.55 110.816 344.279Q110.501 344.008 110.199 343.722Q109.897 343.436 109.61 343.136Q109.322 342.836 109.049 342.523Q108.777 342.21 108.519 341.883Q108.262 341.557 108.021 341.219Q107.779 340.881 107.554 340.531Q107.33 340.182 107.122 339.822Q106.914 339.462 106.724 339.093Q106.534 338.724 106.361 338.345Q106.189 337.967 106.035 337.581Q105.882 337.195 105.747 336.802Q105.611 336.409 105.495 336.01Q105.379 335.612 105.283 335.207Q105.186 334.803 105.109 334.395Q105.032 333.987 104.975 333.575Q104.917 333.164 104.88 332.75Q104.842 332.336 104.825 331.921Q104.807 331.506 104.81 331.09Q104.812 330.675 104.834 330.26Q104.857 329.845 104.899 329.432Q104.942 329.019 105.004 328.608Q105.066 328.197 105.148 327.79Q105.23 327.382 105.331 326.979Q105.433 326.576 105.553 326.179Q105.674 325.781 105.814 325.39Q105.953 324.999 106.112 324.615Q106.27 324.23 106.447 323.854Q106.623 323.478 106.818 323.111Q107.012 322.744 107.224 322.387Q107.436 322.029 107.665 321.682Q107.894 321.336 108.139 321Q108.385 320.665 108.646 320.342Q108.907 320.019 109.184 319.709Q109.46 319.398 109.751 319.102Q110.042 318.805 110.347 318.523Q110.652 318.241 110.97 317.974Q111.288 317.707 111.619 317.455Q111.95 317.204 112.292 316.968Q112.635 316.733 112.988 316.514Q113.341 316.296 113.705 316.094Q114.068 315.893 114.441 315.709Q114.813 315.526 115.195 315.36Q115.576 315.195 115.964 315.048Q116.353 314.901 116.748 314.773Q117.143 314.644 117.544 314.535Q117.945 314.427 118.351 314.337Z"/>
	<path fill="#F09B8C" d="M897.692 692.232Q898.246 692.207 898.8 692.208Q899.355 692.21 899.908 692.238Q900.462 692.267 901.014 692.323Q901.565 692.378 902.114 692.461Q902.662 692.543 903.205 692.652Q903.749 692.761 904.287 692.896Q904.824 693.032 905.355 693.193Q905.885 693.355 906.407 693.542Q906.929 693.729 907.441 693.941Q907.953 694.154 908.454 694.391Q908.956 694.628 909.445 694.889Q909.934 695.15 910.41 695.435Q910.885 695.719 911.347 696.027Q911.808 696.334 912.254 696.664Q912.699 696.994 913.129 697.344Q913.558 697.695 913.969 698.067Q914.381 698.438 914.774 698.829Q915.167 699.22 915.54 699.63Q915.914 700.04 916.267 700.468Q916.62 700.895 916.952 701.339Q917.284 701.783 917.593 702.243Q917.903 702.703 918.19 703.177Q918.477 703.652 918.741 704.14Q919.004 704.627 919.244 705.127Q919.483 705.628 919.698 706.139Q919.913 706.65 920.102 707.171Q920.292 707.692 920.456 708.221Q920.62 708.751 920.758 709.288Q920.896 709.825 921.007 710.368Q921.119 710.911 921.204 711.459Q921.289 712.007 921.347 712.558Q921.406 713.109 921.437 713.663Q921.468 714.217 921.473 714.771Q921.477 715.325 921.454 715.879Q921.432 716.433 921.382 716.986Q921.332 717.538 921.256 718.087Q921.179 718.636 921.076 719.181Q920.973 719.726 920.843 720.265Q920.713 720.804 920.558 721.336Q920.402 721.868 920.22 722.392Q920.039 722.916 919.832 723.43Q919.625 723.944 919.394 724.448Q919.162 724.952 918.906 725.444Q918.65 725.936 918.371 726.414Q918.091 726.893 917.788 727.358Q917.486 727.822 917.161 728.272Q916.836 728.721 916.49 729.154Q916.143 729.587 915.776 730.002Q915.409 730.418 915.022 730.815Q914.635 731.212 914.23 731.59Q913.824 731.968 913.4 732.325Q912.976 732.683 912.536 733.02Q912.095 733.356 911.639 733.671Q911.182 733.985 910.711 734.277Q910.239 734.569 909.754 734.838Q909.27 735.107 908.772 735.352Q908.275 735.596 907.766 735.817Q907.257 736.037 906.738 736.232Q906.219 736.427 905.691 736.597Q905.163 736.766 904.628 736.91Q904.092 737.054 903.55 737.171Q903.009 737.289 902.462 737.38Q901.915 737.471 901.364 737.535Q900.813 737.599 900.26 737.636Q899.512 737.686 898.763 737.687Q898.013 737.688 897.265 737.64Q896.517 737.591 895.774 737.494Q895.031 737.396 894.296 737.25Q893.561 737.104 892.837 736.909Q892.114 736.715 891.404 736.473Q890.695 736.232 890.003 735.944Q889.311 735.656 888.639 735.324Q887.967 734.991 887.319 734.615Q886.671 734.238 886.049 733.82Q885.427 733.402 884.834 732.944Q884.241 732.486 883.679 731.99Q883.117 731.494 882.59 730.961Q882.062 730.429 881.57 729.864Q881.078 729.298 880.625 728.701Q880.172 728.104 879.759 727.479Q879.346 726.854 878.975 726.202Q878.604 725.551 878.277 724.877Q877.95 724.203 877.667 723.508Q877.385 722.814 877.149 722.102Q876.914 721.391 876.725 720.666Q876.537 719.94 876.396 719.204Q876.256 718.468 876.165 717.724Q876.073 716.98 876.031 716.232Q875.988 715.484 875.995 714.734Q876.003 713.985 876.059 713.237Q876.115 712.49 876.221 711.748Q876.326 711.006 876.48 710.272Q876.634 709.539 876.836 708.817Q877.039 708.096 877.288 707.389Q877.537 706.682 877.832 705.993Q878.127 705.304 878.467 704.636Q878.807 703.968 879.19 703.324Q879.573 702.68 879.998 702.062Q880.422 701.445 880.887 700.856Q881.351 700.268 881.853 699.712Q882.356 699.155 882.893 698.633Q883.431 698.111 884.002 697.626Q884.573 697.14 885.174 696.693Q885.776 696.246 886.406 695.84Q887.036 695.434 887.691 695.07Q888.346 694.706 889.024 694.386Q889.701 694.066 890.399 693.791Q891.096 693.516 891.81 693.288Q892.524 693.06 893.251 692.879Q893.978 692.698 894.716 692.566Q895.454 692.433 896.199 692.35Q896.943 692.266 897.692 692.232Z"/>
	<path fill="#FEFEFE" d="M898.146 701.473Q898.473 701.456 898.801 701.454Q899.128 701.452 899.456 701.467Q899.783 701.481 900.109 701.511Q900.435 701.541 900.76 701.587Q901.084 701.632 901.406 701.694Q901.727 701.755 902.046 701.832Q902.364 701.909 902.679 702.001Q902.993 702.093 903.303 702.2Q903.612 702.307 903.916 702.429Q904.22 702.551 904.518 702.688Q904.816 702.824 905.106 702.975Q905.397 703.126 905.68 703.291Q905.964 703.455 906.239 703.633Q906.513 703.812 906.779 704.003Q907.045 704.194 907.302 704.398Q907.558 704.602 907.804 704.818Q908.051 705.034 908.286 705.261Q908.522 705.489 908.746 705.728Q908.97 705.966 909.183 706.216Q909.395 706.465 909.596 706.724Q909.796 706.984 909.983 707.252Q910.171 707.521 910.345 707.798Q910.519 708.076 910.68 708.361Q910.841 708.646 910.987 708.939Q911.134 709.232 911.266 709.532Q911.399 709.832 911.516 710.137Q911.634 710.443 911.737 710.754Q911.84 711.065 911.927 711.381Q912.015 711.696 912.087 712.016Q912.16 712.335 912.216 712.658Q912.273 712.98 912.314 713.305Q912.356 713.63 912.381 713.957Q912.406 714.284 912.416 714.611Q912.426 714.938 912.419 715.266Q912.413 715.593 912.391 715.92Q912.369 716.247 912.331 716.572Q912.293 716.898 912.24 717.221Q912.186 717.544 912.117 717.864Q912.048 718.185 911.964 718.501Q911.88 718.818 911.78 719.13Q911.68 719.442 911.566 719.749Q911.451 720.056 911.322 720.357Q911.193 720.658 911.049 720.952Q910.905 721.246 910.748 721.533Q910.59 721.82 910.419 722.1Q910.247 722.379 910.063 722.649Q909.878 722.92 909.68 723.181Q909.483 723.443 909.273 723.694Q909.063 723.946 908.841 724.187Q908.619 724.428 908.386 724.658Q908.153 724.888 907.909 725.106Q907.665 725.325 907.411 725.531Q907.156 725.738 906.892 725.932Q906.628 726.125 906.355 726.306Q906.082 726.487 905.801 726.655Q905.519 726.823 905.23 726.976Q904.941 727.13 904.644 727.27Q904.348 727.409 904.045 727.534Q903.743 727.66 903.434 727.77Q903.126 727.88 902.812 727.976Q902.499 728.071 902.181 728.151Q901.864 728.231 901.543 728.296Q901.221 728.36 900.898 728.41Q900.574 728.459 900.248 728.492Q899.8 728.538 899.349 728.554Q898.899 728.57 898.449 728.556Q897.998 728.542 897.55 728.498Q897.101 728.454 896.657 728.381Q896.212 728.307 895.773 728.205Q895.335 728.102 894.904 727.97Q894.473 727.838 894.052 727.678Q893.63 727.518 893.221 727.33Q892.811 727.143 892.415 726.928Q892.019 726.714 891.637 726.473Q891.256 726.233 890.892 725.968Q890.528 725.702 890.182 725.414Q889.836 725.125 889.51 724.814Q889.184 724.503 888.879 724.171Q888.574 723.839 888.293 723.487Q888.011 723.135 887.753 722.766Q887.495 722.396 887.262 722.011Q887.03 721.625 886.823 721.224Q886.616 720.824 886.437 720.411Q886.257 719.997 886.105 719.573Q885.953 719.149 885.83 718.716Q885.707 718.282 885.613 717.841Q885.519 717.401 885.454 716.955Q885.389 716.509 885.354 716.06Q885.319 715.61 885.314 715.16Q885.309 714.709 885.334 714.259Q885.359 713.809 885.414 713.362Q885.469 712.915 885.553 712.472Q885.637 712.03 885.751 711.594Q885.864 711.157 886.006 710.73Q886.149 710.302 886.319 709.885Q886.489 709.468 886.687 709.063Q886.885 708.658 887.109 708.267Q887.333 707.876 887.583 707.501Q887.832 707.126 888.106 706.768Q888.38 706.41 888.677 706.071Q888.974 705.733 889.293 705.414Q889.612 705.096 889.951 704.8Q890.291 704.503 890.649 704.23Q891.007 703.957 891.383 703.708Q891.759 703.459 892.15 703.236Q892.542 703.012 892.947 702.815Q893.352 702.619 893.77 702.449Q894.187 702.28 894.615 702.138Q895.043 701.997 895.479 701.884Q895.916 701.772 896.358 701.688Q896.801 701.605 897.249 701.551Q897.696 701.497 898.146 701.473Z"/>
	<path fill="#F09B8C" d="M124.865 436.454Q125.413 436.377 125.963 436.326Q126.514 436.276 127.067 436.253Q127.619 436.23 128.172 436.234Q128.726 436.238 129.278 436.269Q129.83 436.301 130.38 436.36Q130.93 436.418 131.476 436.504Q132.023 436.59 132.564 436.702Q133.106 436.815 133.641 436.954Q134.176 437.094 134.704 437.259Q135.232 437.425 135.751 437.616Q136.27 437.807 136.778 438.024Q137.287 438.241 137.785 438.482Q138.282 438.724 138.767 438.989Q139.252 439.255 139.724 439.545Q140.195 439.834 140.652 440.146Q141.108 440.459 141.548 440.793Q141.989 441.128 142.412 441.484Q142.836 441.839 143.241 442.216Q143.646 442.592 144.033 442.988Q144.419 443.384 144.785 443.798Q145.152 444.213 145.497 444.645Q145.842 445.077 146.166 445.525Q146.49 445.974 146.791 446.438Q147.092 446.901 147.37 447.38Q147.648 447.858 147.901 448.349Q148.155 448.841 148.385 449.344Q148.614 449.847 148.818 450.361Q149.022 450.875 149.201 451.399Q149.38 451.922 149.532 452.454Q149.685 452.985 149.811 453.524Q149.937 454.062 150.036 454.607Q150.136 455.151 150.208 455.699Q150.28 456.247 150.326 456.799Q150.371 457.35 150.389 457.902Q150.407 458.455 150.397 459.008Q150.388 459.561 150.352 460.113Q150.315 460.665 150.251 461.214Q150.187 461.764 150.097 462.309Q150.006 462.855 149.888 463.395Q149.77 463.936 149.626 464.47Q149.482 465.004 149.312 465.53Q149.141 466.056 148.945 466.573Q148.749 467.09 148.528 467.597Q148.306 468.104 148.06 468.599Q147.814 469.094 147.544 469.577Q147.273 470.06 146.979 470.528Q146.686 470.997 146.369 471.45Q146.053 471.904 145.714 472.341Q145.375 472.779 145.016 473.199Q144.656 473.619 144.276 474.02Q143.896 474.422 143.497 474.805Q143.097 475.188 142.679 475.55Q142.262 475.912 141.826 476.254Q141.391 476.595 140.94 476.914Q140.488 477.234 140.022 477.531Q139.555 477.828 139.074 478.101Q138.593 478.374 138.1 478.624Q137.606 478.873 137.101 479.098Q136.595 479.322 136.079 479.522Q135.563 479.721 135.038 479.895Q134.513 480.069 133.98 480.216Q133.447 480.364 132.908 480.485Q132.368 480.606 131.823 480.7Q131.278 480.795 130.729 480.862Q130.186 480.929 129.641 480.969Q129.096 481.009 128.55 481.022Q128.003 481.035 127.457 481.022Q126.91 481.009 126.365 480.969Q125.82 480.929 125.278 480.862Q124.735 480.796 124.196 480.703Q123.658 480.61 123.124 480.491Q122.591 480.372 122.064 480.227Q121.537 480.082 121.017 479.912Q120.498 479.741 119.988 479.546Q119.477 479.35 118.977 479.13Q118.477 478.91 117.988 478.665Q117.499 478.421 117.022 478.153Q116.546 477.885 116.083 477.594Q115.62 477.303 115.172 476.99Q114.724 476.677 114.292 476.342Q113.86 476.008 113.445 475.653Q113.029 475.297 112.632 474.922Q112.234 474.547 111.855 474.153Q111.476 473.759 111.117 473.347Q110.758 472.935 110.419 472.506Q110.081 472.077 109.764 471.632Q109.446 471.187 109.151 470.726Q108.856 470.266 108.584 469.793Q108.311 469.319 108.062 468.832Q107.813 468.345 107.588 467.847Q107.363 467.349 107.163 466.84Q106.963 466.332 106.787 465.814Q106.612 465.296 106.462 464.771Q106.312 464.245 106.188 463.713Q106.064 463.18 105.966 462.643Q105.869 462.105 105.797 461.563Q105.725 461.021 105.68 460.476Q105.635 459.932 105.617 459.385Q105.599 458.839 105.607 458.293Q105.615 457.746 105.65 457.201Q105.685 456.655 105.746 456.112Q105.808 455.569 105.896 455.029Q105.984 454.49 106.098 453.955Q106.212 453.421 106.352 452.892Q106.492 452.364 106.658 451.843Q106.823 451.322 107.014 450.81Q107.205 450.298 107.421 449.796Q107.636 449.293 107.876 448.802Q108.116 448.311 108.38 447.832Q108.643 447.353 108.93 446.888Q109.216 446.422 109.525 445.971Q109.834 445.521 110.165 445.085Q110.495 444.65 110.847 444.231Q111.198 443.813 111.57 443.412Q111.941 443.011 112.331 442.628Q112.722 442.246 113.131 441.883Q113.539 441.52 113.965 441.177Q114.391 440.835 114.834 440.513Q115.276 440.192 115.733 439.893Q116.19 439.593 116.662 439.316Q117.133 439.04 117.617 438.786Q118.102 438.533 118.598 438.303Q119.094 438.074 119.6 437.869Q120.107 437.664 120.623 437.484Q121.139 437.304 121.664 437.149Q122.188 436.994 122.719 436.865Q123.25 436.736 123.787 436.633Q124.324 436.531 124.865 436.454Z"/>
	<path fill="#FEFEFE" d="M124.452 445.576C126.589 445.406 128.755 445.2 130.847 445.789Q131.528 445.976 132.187 446.232Q132.846 446.487 133.476 446.808Q134.105 447.13 134.698 447.513Q135.292 447.897 135.843 448.339Q136.395 448.781 136.898 449.277Q137.402 449.773 137.852 450.317Q138.303 450.862 138.695 451.449Q139.088 452.037 139.419 452.661Q139.717 453.226 139.958 453.818Q140.199 454.41 140.38 455.023Q140.562 455.636 140.682 456.263Q140.802 456.891 140.86 457.527Q140.918 458.164 140.913 458.803Q140.907 459.442 140.839 460.078Q140.771 460.713 140.641 461.339Q140.51 461.964 140.319 462.574C138.934 466.95 135.937 469.418 131.971 471.4C129.729 471.576 127.057 471.944 124.874 471.322Q124.239 471.139 123.625 470.891Q123.012 470.643 122.428 470.333Q121.844 470.024 121.295 469.655Q120.745 469.287 120.237 468.864Q119.729 468.441 119.267 467.968Q118.805 467.494 118.394 466.976Q117.984 466.458 117.629 465.9Q117.274 465.342 116.978 464.75Q116.661 464.096 116.412 463.415Q116.163 462.733 115.983 462.029Q115.803 461.326 115.695 460.608Q115.587 459.89 115.551 459.164Q115.516 458.439 115.553 457.714Q115.59 456.989 115.7 456.271Q115.81 455.554 115.991 454.85Q116.172 454.147 116.423 453.466C117.92 449.48 120.697 447.288 124.452 445.576Z"/>
	<path fill="#F09B8C" d="M894.745 341.761Q895.275 341.637 895.81 341.54Q896.345 341.442 896.884 341.371Q897.424 341.3 897.966 341.255Q898.508 341.211 899.052 341.193Q899.595 341.175 900.139 341.184Q900.683 341.192 901.226 341.228Q901.769 341.263 902.309 341.326Q902.85 341.388 903.386 341.476Q903.923 341.565 904.455 341.68Q904.987 341.795 905.512 341.935Q906.038 342.076 906.555 342.243Q907.073 342.409 907.582 342.601Q908.091 342.793 908.591 343.009Q909.09 343.226 909.577 343.466Q910.065 343.707 910.541 343.971Q911.016 344.236 911.478 344.523Q911.94 344.811 912.387 345.121Q912.834 345.43 913.266 345.762Q913.697 346.093 914.112 346.445Q914.526 346.797 914.923 347.169Q915.32 347.541 915.698 347.933Q916.076 348.324 916.434 348.733Q916.793 349.142 917.131 349.568Q917.469 349.995 917.785 350.437Q918.102 350.88 918.396 351.337Q918.691 351.795 918.962 352.266Q919.234 352.737 919.482 353.221Q919.73 353.705 919.954 354.201Q920.178 354.697 920.377 355.203Q920.577 355.709 920.751 356.224Q920.926 356.74 921.074 357.263Q921.223 357.786 921.346 358.316Q921.469 358.846 921.566 359.381Q921.662 359.917 921.733 360.456Q921.803 360.995 921.847 361.538Q921.891 362.08 921.908 362.624Q921.925 363.167 921.915 363.711Q921.906 364.255 921.869 364.798Q921.833 365.341 921.77 365.881Q921.707 366.421 921.618 366.958Q921.528 367.495 921.412 368.026Q921.297 368.558 921.155 369.083Q921.013 369.608 920.846 370.126Q920.679 370.643 920.486 371.152Q920.294 371.661 920.077 372.16Q919.859 372.659 919.618 373.146Q919.376 373.633 919.111 374.108Q918.846 374.583 918.558 375.045Q918.27 375.506 917.959 375.953Q917.649 376.4 917.317 376.831Q916.985 377.262 916.632 377.676Q916.279 378.09 915.907 378.486Q915.534 378.882 915.142 379.26Q914.75 379.637 914.341 379.995Q913.931 380.353 913.504 380.69Q913.077 381.027 912.634 381.343Q912.191 381.659 911.734 381.953Q911.276 382.246 910.804 382.517Q910.332 382.788 909.848 383.036Q909.363 383.283 908.867 383.506Q908.371 383.729 907.865 383.928Q907.358 384.127 906.843 384.3Q906.327 384.474 905.803 384.622Q905.28 384.77 904.75 384.892Q904.221 385.014 903.687 385.11Q903.152 385.206 902.614 385.275Q902.075 385.345 901.534 385.388Q900.993 385.431 900.45 385.447Q899.907 385.464 899.364 385.453Q898.822 385.443 898.28 385.406Q897.738 385.37 897.199 385.306Q896.66 385.243 896.124 385.153Q895.589 385.064 895.058 384.948Q894.528 384.832 894.004 384.69Q893.479 384.549 892.963 384.382Q892.446 384.214 891.938 384.022Q891.431 383.83 890.933 383.613Q890.435 383.396 889.949 383.155Q889.462 382.914 888.988 382.649Q888.514 382.384 888.054 382.097Q887.593 381.809 887.147 381.499Q886.701 381.189 886.271 380.858Q885.841 380.527 885.428 380.175Q885.014 379.823 884.619 379.451Q884.223 379.079 883.846 378.688Q883.469 378.298 883.112 377.889Q882.754 377.48 882.418 377.054Q882.081 376.628 881.765 376.187Q881.45 375.745 881.156 375.288Q880.862 374.831 880.592 374.361Q880.321 373.89 880.073 373.407Q879.826 372.923 879.603 372.428Q879.379 371.934 879.18 371.428Q878.981 370.923 878.807 370.409Q878.634 369.894 878.485 369.372Q878.337 368.85 878.214 368.321Q878.091 367.792 877.995 367.258Q877.898 366.724 877.828 366.185Q877.758 365.647 877.714 365.106Q877.67 364.565 877.653 364.022Q877.636 363.479 877.645 362.936Q877.654 362.394 877.69 361.852Q877.726 361.31 877.789 360.771Q877.851 360.231 877.94 359.696Q878.029 359.16 878.144 358.63Q878.259 358.099 878.4 357.575Q878.541 357.05 878.707 356.533Q878.874 356.017 879.065 355.509Q879.257 355.001 879.473 354.503Q879.689 354.005 879.93 353.518Q880.17 353.031 880.434 352.556Q880.698 352.082 880.985 351.621Q881.272 351.16 881.581 350.714Q881.89 350.267 882.221 349.837Q882.551 349.406 882.903 348.992Q883.254 348.578 883.625 348.182Q883.996 347.786 884.387 347.408Q884.777 347.031 885.185 346.673Q885.593 346.315 886.019 345.978Q886.444 345.64 886.885 345.324Q887.327 345.008 887.783 344.713Q888.239 344.419 888.709 344.148Q889.18 343.876 889.662 343.628Q890.145 343.38 890.64 343.156Q891.134 342.932 891.639 342.732Q892.144 342.532 892.658 342.358Q893.172 342.183 893.694 342.034Q894.216 341.884 894.745 341.761Z"/>
	<path fill="#FEFEFE" d="M898.119 351.094Q898.421 351.064 898.725 351.05Q899.028 351.035 899.332 351.035Q899.636 351.035 899.94 351.05Q900.243 351.065 900.546 351.095Q900.848 351.124 901.149 351.169Q901.45 351.213 901.748 351.272Q902.046 351.331 902.341 351.405Q902.635 351.478 902.927 351.566Q903.217 351.654 903.504 351.756Q903.79 351.858 904.071 351.974Q904.352 352.089 904.627 352.219Q904.902 352.348 905.17 352.491Q905.439 352.633 905.7 352.789Q905.961 352.944 906.214 353.113Q906.467 353.281 906.712 353.461Q906.957 353.641 907.192 353.833Q907.428 354.025 907.654 354.228Q907.88 354.432 908.095 354.646Q908.311 354.86 908.516 355.084Q908.721 355.308 908.915 355.542Q909.109 355.777 909.291 356.02Q909.473 356.263 909.643 356.515Q909.813 356.767 909.971 357.027Q910.129 357.286 910.273 357.554Q910.418 357.821 910.55 358.095Q910.681 358.369 910.799 358.649Q910.917 358.929 911.021 359.214Q911.125 359.5 911.216 359.79Q911.306 360.08 911.382 360.375Q911.457 360.669 911.519 360.967Q911.58 361.264 911.627 361.564Q911.674 361.865 911.706 362.167Q911.738 362.469 911.755 362.773Q911.773 363.076 911.775 363.38Q911.778 363.684 911.765 363.987Q911.753 364.291 911.726 364.594Q911.699 364.896 911.657 365.197Q911.615 365.498 911.558 365.797Q911.502 366.096 911.431 366.391Q911.36 366.686 911.275 366.978Q911.189 367.27 911.09 367.557Q910.99 367.844 910.877 368.126Q910.763 368.408 910.636 368.684Q910.509 368.96 910.369 369.23Q910.229 369.499 910.075 369.762Q909.922 370.024 909.756 370.279Q909.59 370.533 909.412 370.779Q909.234 371.026 909.044 371.263Q908.854 371.5 908.653 371.728Q908.451 371.955 908.239 372.173Q908.027 372.39 907.804 372.597Q907.582 372.804 907.349 373Q907.117 373.196 906.875 373.38Q906.634 373.564 906.383 373.736Q906.133 373.909 905.874 374.068Q905.616 374.228 905.35 374.375Q905.084 374.522 904.811 374.656Q904.538 374.79 904.259 374.91Q903.98 375.031 903.696 375.137Q903.411 375.244 903.122 375.336Q902.832 375.429 902.539 375.507Q902.245 375.586 901.948 375.65Q901.651 375.714 901.351 375.763Q901.051 375.812 900.749 375.847Q900.444 375.882 900.137 375.902Q899.831 375.922 899.524 375.927Q899.216 375.931 898.909 375.921Q898.602 375.911 898.296 375.885Q897.99 375.86 897.686 375.819Q897.381 375.779 897.079 375.723Q896.777 375.667 896.478 375.597Q896.179 375.527 895.884 375.442Q895.588 375.357 895.298 375.257Q895.007 375.157 894.722 375.044Q894.436 374.93 894.157 374.802Q893.878 374.675 893.605 374.533Q893.332 374.392 893.067 374.238Q892.801 374.083 892.544 373.915Q892.286 373.748 892.037 373.568Q891.788 373.388 891.548 373.196Q891.309 373.004 891.079 372.8Q890.849 372.597 890.629 372.382Q890.409 372.167 890.201 371.942Q889.992 371.716 889.794 371.481Q889.597 371.246 889.411 371.001Q889.226 370.756 889.052 370.503Q888.879 370.249 888.719 369.987Q888.558 369.725 888.411 369.456Q888.263 369.186 888.129 368.91Q887.995 368.633 887.875 368.35Q887.755 368.068 887.649 367.779Q887.543 367.491 887.451 367.198Q887.359 366.905 887.282 366.607Q887.205 366.31 887.143 366.009Q887.08 365.708 887.033 365.405Q886.985 365.101 886.953 364.796Q886.921 364.491 886.903 364.184Q886.886 363.877 886.884 363.57Q886.882 363.263 886.895 362.956Q886.908 362.649 886.936 362.343Q886.964 362.037 887.007 361.733Q887.05 361.429 887.108 361.127Q887.166 360.826 887.239 360.527Q887.312 360.229 887.399 359.934Q887.487 359.64 887.589 359.35Q887.691 359.061 887.807 358.776Q887.923 358.492 888.053 358.214Q888.183 357.935 888.327 357.664Q888.47 357.392 888.627 357.128Q888.784 356.864 888.953 356.608Q889.123 356.352 889.305 356.104Q889.487 355.857 889.681 355.619Q889.875 355.381 890.081 355.152Q890.287 354.924 890.503 354.706Q890.72 354.488 890.947 354.281Q891.174 354.075 891.411 353.879Q891.648 353.684 891.894 353.5Q892.141 353.317 892.396 353.146Q892.651 352.974 892.914 352.816Q893.177 352.658 893.448 352.513Q893.719 352.367 893.996 352.236Q894.274 352.104 894.557 351.986Q894.841 351.869 895.13 351.765Q895.419 351.661 895.713 351.572Q896.007 351.483 896.305 351.408Q896.603 351.333 896.904 351.274Q897.206 351.214 897.51 351.169Q897.813 351.124 898.119 351.094Z"/>
</svg>
